<mxfile host="app.diagrams.net" modified="2021-03-14T14:50:17.989Z" agent="5.0 (Macintosh; Intel Mac OS X 11_0_1) AppleWebKit/537.36 (KHTML, like Gecko) Chrome/89.0.4389.82 Safari/537.36" etag="T_ydYpb9hIM2h-nAGoj2" version="14.4.3" type="github">
  <diagram id="br9xavQn8HzBRbiL3zdX" name="Page-1">
    <mxGraphModel dx="1186" dy="707" grid="1" gridSize="10" guides="1" tooltips="1" connect="1" arrows="1" fold="1" page="1" pageScale="1" pageWidth="827" pageHeight="1169" math="0" shadow="0">
      <root>
        <mxCell id="0" />
        <mxCell id="1" parent="0" />
        <mxCell id="Vr31ZsoqSy_SOZ5ecPmL-11" value="" style="rounded=0;whiteSpace=wrap;html=1;" vertex="1" parent="1">
          <mxGeometry x="510" y="680" width="300" height="350" as="geometry" />
        </mxCell>
        <mxCell id="Vr31ZsoqSy_SOZ5ecPmL-1" value="&lt;span style=&quot;font-size: 24px&quot;&gt;lib.rs&lt;/span&gt;" style="rounded=0;whiteSpace=wrap;html=1;" vertex="1" parent="1">
          <mxGeometry x="190" y="490" width="620" height="60" as="geometry" />
        </mxCell>
        <mxCell id="Vr31ZsoqSy_SOZ5ecPmL-19" style="edgeStyle=orthogonalEdgeStyle;curved=1;rounded=0;orthogonalLoop=1;jettySize=auto;html=1;entryX=0.842;entryY=1;entryDx=0;entryDy=0;entryPerimeter=0;" edge="1" parent="1" source="Vr31ZsoqSy_SOZ5ecPmL-3" target="Vr31ZsoqSy_SOZ5ecPmL-1">
          <mxGeometry relative="1" as="geometry" />
        </mxCell>
        <mxCell id="Vr31ZsoqSy_SOZ5ecPmL-3" value="&lt;font style=&quot;font-size: 24px&quot;&gt;init.rs&lt;/font&gt;" style="rounded=0;whiteSpace=wrap;html=1;" vertex="1" parent="1">
          <mxGeometry x="510" y="600" width="300" height="60" as="geometry" />
        </mxCell>
        <mxCell id="Vr31ZsoqSy_SOZ5ecPmL-17" style="edgeStyle=orthogonalEdgeStyle;curved=1;rounded=0;orthogonalLoop=1;jettySize=auto;html=1;" edge="1" parent="1" source="Vr31ZsoqSy_SOZ5ecPmL-4" target="Vr31ZsoqSy_SOZ5ecPmL-1">
          <mxGeometry relative="1" as="geometry" />
        </mxCell>
        <mxCell id="Vr31ZsoqSy_SOZ5ecPmL-4" value="&lt;font style=&quot;font-size: 24px&quot;&gt;store.rs&lt;/font&gt;" style="rounded=0;whiteSpace=wrap;html=1;" vertex="1" parent="1">
          <mxGeometry x="350" y="600" width="120" height="60" as="geometry" />
        </mxCell>
        <mxCell id="Vr31ZsoqSy_SOZ5ecPmL-18" style="edgeStyle=orthogonalEdgeStyle;curved=1;rounded=0;orthogonalLoop=1;jettySize=auto;html=1;entryX=0.21;entryY=0.983;entryDx=0;entryDy=0;entryPerimeter=0;" edge="1" parent="1" source="Vr31ZsoqSy_SOZ5ecPmL-5" target="Vr31ZsoqSy_SOZ5ecPmL-1">
          <mxGeometry relative="1" as="geometry" />
        </mxCell>
        <mxCell id="Vr31ZsoqSy_SOZ5ecPmL-5" value="&lt;font style=&quot;font-size: 24px&quot;&gt;config.rs&lt;/font&gt;" style="rounded=0;whiteSpace=wrap;html=1;" vertex="1" parent="1">
          <mxGeometry x="190" y="600" width="120" height="60" as="geometry" />
        </mxCell>
        <mxCell id="Vr31ZsoqSy_SOZ5ecPmL-16" style="edgeStyle=orthogonalEdgeStyle;curved=1;rounded=0;orthogonalLoop=1;jettySize=auto;html=1;entryX=0;entryY=0.5;entryDx=0;entryDy=0;" edge="1" parent="1" source="Vr31ZsoqSy_SOZ5ecPmL-6" target="Vr31ZsoqSy_SOZ5ecPmL-3">
          <mxGeometry relative="1" as="geometry" />
        </mxCell>
        <mxCell id="Vr31ZsoqSy_SOZ5ecPmL-6" value="&lt;font style=&quot;font-size: 24px&quot;&gt;tools.rs&lt;/font&gt;" style="rounded=0;whiteSpace=wrap;html=1;" vertex="1" parent="1">
          <mxGeometry x="600" y="710" width="120" height="60" as="geometry" />
        </mxCell>
        <mxCell id="Vr31ZsoqSy_SOZ5ecPmL-15" style="edgeStyle=orthogonalEdgeStyle;curved=1;rounded=0;orthogonalLoop=1;jettySize=auto;html=1;entryX=1;entryY=0.5;entryDx=0;entryDy=0;" edge="1" parent="1" source="Vr31ZsoqSy_SOZ5ecPmL-7" target="Vr31ZsoqSy_SOZ5ecPmL-6">
          <mxGeometry relative="1" as="geometry">
            <Array as="points">
              <mxPoint x="750" y="810" />
              <mxPoint x="750" y="740" />
            </Array>
          </mxGeometry>
        </mxCell>
        <mxCell id="Vr31ZsoqSy_SOZ5ecPmL-7" value="&lt;span style=&quot;font-size: 24px&quot;&gt;programs&lt;/span&gt;" style="rounded=0;whiteSpace=wrap;html=1;" vertex="1" parent="1">
          <mxGeometry x="600" y="790" width="120" height="60" as="geometry" />
        </mxCell>
        <mxCell id="Vr31ZsoqSy_SOZ5ecPmL-14" style="edgeStyle=orthogonalEdgeStyle;rounded=0;orthogonalLoop=1;jettySize=auto;html=1;entryX=0;entryY=0.5;entryDx=0;entryDy=0;curved=1;" edge="1" parent="1" source="Vr31ZsoqSy_SOZ5ecPmL-8" target="Vr31ZsoqSy_SOZ5ecPmL-7">
          <mxGeometry relative="1" as="geometry">
            <Array as="points">
              <mxPoint x="560" y="910" />
              <mxPoint x="560" y="820" />
            </Array>
          </mxGeometry>
        </mxCell>
        <mxCell id="Vr31ZsoqSy_SOZ5ecPmL-8" value="&lt;span style=&quot;font-size: 24px&quot;&gt;shaders&lt;/span&gt;" style="rounded=0;whiteSpace=wrap;html=1;" vertex="1" parent="1">
          <mxGeometry x="600" y="880" width="120" height="60" as="geometry" />
        </mxCell>
        <mxCell id="Vr31ZsoqSy_SOZ5ecPmL-12" value="&lt;font style=&quot;font-size: 24px&quot;&gt;WebGL 逻辑&lt;/font&gt;" style="text;html=1;strokeColor=none;fillColor=none;align=center;verticalAlign=middle;whiteSpace=wrap;rounded=0;" vertex="1" parent="1">
          <mxGeometry x="580" y="980" width="160" height="20" as="geometry" />
        </mxCell>
      </root>
    </mxGraphModel>
  </diagram>
</mxfile>
